<?xml version="1.0" encoding="UTF-8"?>
<svg width="138px" height="41px" viewBox="0 0 138 41" version="1.1" xmlns="http://www.w3.org/2000/svg" xmlns:xlink="http://www.w3.org/1999/xlink">
    <!-- Generator: Sketch 51.3 (57544) - http://www.bohemiancoding.com/sketch -->
    <title>Group 7</title>
    <desc>Created with Sketch.</desc>
    <defs></defs>
    <g id="Page-1" stroke="none" stroke-width="1" fill="none" fill-rule="evenodd">
        <g id="Group-7" transform="translate(1.000000, 0.000000)" fill="#222222">
            <path d="M3.07042254,7.09859155 C3.87323944,7.54929577 4.61971831,7.76056338 5.45070423,7.76056338 C7.01408451,7.76056338 7.94366197,6.90140845 7.94366197,5.45070423 C7.94366197,4.08450704 6.90140845,3.5915493 6.05633803,3.1971831 C5.47887324,2.92957746 4.97183099,2.69014085 4.97183099,2.23943662 C4.97183099,1.87323944 5.21126761,1.49295775 5.74647887,1.49295775 C6.14084507,1.49295775 6.6056338,1.61971831 7.1971831,1.90140845 L7.8028169,0.704225352 C7.09859155,0.295774648 6.3943662,0.0985915493 5.61971831,0.0985915493 C4.12676056,0.0985915493 3.22535211,0.901408451 3.22535211,2.25352113 C3.22535211,3.6056338 4.26760563,4.12676056 5.11267606,4.53521127 C5.71830986,4.84507042 6.25352113,5.09859155 6.25352113,5.5915493 C6.25352113,6.01408451 5.87323944,6.30985915 5.30985915,6.30985915 C4.85915493,6.30985915 4.30985915,6.14084507 3.66197183,5.81690141 L3.07042254,7.09859155 Z" id="Shape" fill-rule="nonzero"></path>
            <path d="M11.084507,0.971830986 C10.4366197,0.971830986 9.45070423,0.971830986 8.88732394,0.985915493 L8.88732394,7.61971831 L10.5352113,7.61971831 L10.5352113,5.5915493 L11.0422535,5.5915493 C11.7887324,5.5915493 13.5492958,5.35211268 13.5492958,3.09859155 C13.5352113,1.73239437 12.6619718,0.971830986 11.084507,0.971830986 Z M11.028169,4.35211268 C10.8169014,4.35211268 10.6760563,4.35211268 10.5633803,4.33802817 L10.5492958,4.33802817 L10.5492958,2.22535211 L10.5774648,2.22535211 C10.7183099,2.21126761 10.915493,2.21126761 11.0704225,2.21126761 C11.8309859,2.21126761 11.9859155,2.64788732 11.9859155,3.36619718 C11.971831,4.04225352 11.6760563,4.35211268 11.028169,4.35211268 Z" id="Shape" fill-rule="nonzero"></path>
            <path d="M18.3521127,5.07042254 L18.3380282,5.05633803 L18.3521127,5.04225352 C18.9014085,4.6056338 19.2112676,3.92957746 19.2112676,3.12676056 C19.2112676,1.53521127 17.8450704,0.971830986 16.5633803,0.971830986 C15.915493,0.971830986 14.9295775,0.971830986 14.3661972,0.985915493 L14.3661972,7.61971831 L16.0140845,7.61971831 L16.0140845,5.5915493 L16.5211268,5.5915493 C16.6197183,5.5915493 16.7183099,5.5915493 16.8028169,5.57746479 L16.8169014,5.57746479 L16.8309859,5.5915493 C17.1126761,6.02816901 17.4507042,6.73239437 17.5633803,7.61971831 L19.3802817,7.61971831 C19.2253521,6.6056338 18.6760563,5.5915493 18.3521127,5.07042254 Z M16.5211268,4.35211268 C16.3098592,4.35211268 16.1830986,4.35211268 16.056338,4.33802817 L16.028169,4.33802817 L16.028169,2.22535211 L16.056338,2.22535211 C16.1971831,2.21126761 16.3943662,2.21126761 16.5492958,2.21126761 C17.3098592,2.21126761 17.4647887,2.64788732 17.4647887,3.36619718 C17.4647887,4.04225352 17.1690141,4.35211268 16.5211268,4.35211268 Z" id="Shape" fill-rule="nonzero"></path>
            <polygon id="Shape" fill-rule="nonzero" points="20.4225352 0.971830986 20.4225352 1.33802817 20.4225352 1.87323944 20.4225352 2.53521127 20.4225352 3.33802817 20.4225352 4.47887324 20.4225352 5.4084507 20.4225352 6.36619718 20.4225352 7.61971831 22.084507 7.61971831 22.084507 6.95774648 22.084507 5.66197183 22.084507 4.61971831 22.084507 3.5915493 22.084507 2.67605634 22.084507 2.16901408 22.084507 1.46478873 22.084507 0.971830986"></polygon>
            <polygon id="Shape" fill-rule="nonzero" points="27.0422535 7.61971831 28.7887324 7.61971831 28.7887324 0.971830986 27.3239437 0.971830986 27.3239437 5.32394366 25.3380282 0.971830986 23.5352113 0.971830986 23.5352113 7.61971831 24.9859155 7.61971831 24.9859155 3.43661972"></polygon>
            <polygon id="Shape" fill-rule="nonzero" points="52.4366197 7.61971831 54.3943662 7.61971831 54.3943662 0.169014085 52.8732394 0.169014085 52.8732394 5.36619718 50.4366197 0.169014085 48.5070423 0.169014085 48.5070423 7.61971831 50.028169 7.61971831 50.028169 2.47887324"></polygon>
            <path d="M32.7746479,0.830985915 C31.7746479,0.830985915 31.0422535,1.11267606 30.5633803,1.69014085 C30.084507,2.26760563 29.8450704,3.11267606 29.8450704,4.29577465 C29.8450704,6.87323944 30.5915493,7.83098592 32.6197183,7.83098592 C33.2676056,7.83098592 34.2253521,7.66197183 34.943662,7.29577465 L34.943662,4 L32.7605634,4 L32.7605634,5.12676056 L33.4507042,5.12676056 L33.4507042,6.47887324 L33.4366197,6.47887324 C33.2676056,6.53521127 32.8732394,6.56338028 32.7042254,6.56338028 C31.8309859,6.56338028 31.4929577,5.91549296 31.4929577,4.26760563 C31.4929577,2.81690141 32,2.11267606 33.028169,2.11267606 C33.3802817,2.11267606 33.8732394,2.26760563 34.4084507,2.53521127 L34.8591549,1.42253521 C34.2676056,1.05633803 33.4929577,0.830985915 32.7746479,0.830985915" id="Shape" fill-rule="nonzero"></path>
            <polygon id="Shape" fill-rule="nonzero" points="62.6901408 7.61971831 64.4225352 7.61971831 64.4225352 2.33802817 65.6901408 2.33802817 65.6901408 0.971830986 61.2112676 0.971830986 61.2112676 2.33802817 62.6901408 2.33802817"></polygon>
            <path d="M66.6901408,0.971830986 L66.6901408,5.47887324 C66.6901408,7.05633803 67.4647887,7.77464789 69.1830986,7.77464789 C70.943662,7.77464789 71.7746479,6.97183099 71.7746479,5.23943662 L71.7746479,0.971830986 L70.056338,0.971830986 L70.056338,5.3943662 C70.056338,6.07042254 70.0140845,6.49295775 69.2535211,6.49295775 C68.5211268,6.49295775 68.3943662,6.15492958 68.3943662,5.38028169 L68.3943662,0.971830986 L66.6901408,0.971830986 L66.6901408,0.971830986 Z" id="Shape" fill-rule="nonzero"></path>
            <path d="M36.084507,0.971830986 L36.084507,6.43661972 C36.084507,6.43661972 36.0704225,6.95774648 36.4225352,7.32394366 C36.6338028,7.54929577 36.943662,7.66197183 37.3380282,7.66197183 C38.5352113,7.66197183 39.8591549,7.61971831 40.0422535,7.61971831 L40.0422535,6.32394366 L37.6619718,6.32394366 L37.6619718,4.87323944 L39.8028169,4.87323944 L39.8028169,3.5915493 L37.6619718,3.5915493 L37.6619718,2.28169014 L40,2.28169014 L40,0.985915493 L36.084507,0.985915493 L36.084507,0.971830986 Z" id="Shape" fill-rule="nonzero"></path>
            <path d="M78.9577465,0.971830986 L78.9577465,6.43661972 C78.9577465,6.43661972 78.943662,6.95774648 79.2957746,7.32394366 C79.5070423,7.54929577 79.8169014,7.66197183 80.2112676,7.66197183 C81.4084507,7.66197183 82.7323944,7.61971831 82.915493,7.61971831 L82.915493,6.32394366 L80.5352113,6.32394366 L80.5352113,4.87323944 L82.6760563,4.87323944 L82.6760563,3.5915493 L80.5352113,3.5915493 L80.5352113,2.28169014 L82.8732394,2.28169014 L82.8732394,0.985915493 L78.9577465,0.985915493 L78.9577465,0.971830986 Z" id="Shape" fill-rule="nonzero"></path>
            <path d="M59.5492958,0.971830986 L56.971831,0.971830986 L55.3521127,7.6056338 L57.0422535,7.6056338 L57.2816901,6.54929577 L59.1267606,6.54929577 L59.3661972,7.6056338 L61.1408451,7.6056338 L59.5492958,0.971830986 Z M57.4647887,5.30985915 L58.1549296,2.42253521 L58.2253521,2.42253521 L58.9295775,5.30985915 L57.4647887,5.30985915 Z" id="Shape" fill-rule="nonzero"></path>
            <path d="M45.2394366,5.07042254 L45.2253521,5.05633803 L45.2394366,5.04225352 C45.7887324,4.6056338 46.0985915,3.92957746 46.0985915,3.12676056 C46.0985915,1.53521127 44.7323944,0.971830986 43.4507042,0.971830986 C42.8028169,0.971830986 41.8169014,0.971830986 41.2535211,0.985915493 L41.2535211,7.61971831 L42.9014085,7.61971831 L42.9014085,5.5915493 L43.4084507,5.5915493 C43.5070423,5.5915493 43.6056338,5.5915493 43.6901408,5.57746479 L43.7042254,5.57746479 L43.7183099,5.5915493 C44,6.02816901 44.3380282,6.73239437 44.4507042,7.61971831 L46.2676056,7.61971831 C46.1126761,6.6056338 45.5492958,5.5915493 45.2394366,5.07042254 Z M43.4084507,4.35211268 C43.1971831,4.35211268 43.0704225,4.35211268 42.943662,4.33802817 L42.915493,4.33802817 L42.915493,2.22535211 L42.943662,2.22535211 C43.084507,2.21126761 43.2816901,2.21126761 43.4366197,2.21126761 C44.1971831,2.21126761 44.3521127,2.64788732 44.3521127,3.36619718 C44.3380282,4.04225352 44.056338,4.35211268 43.4084507,4.35211268 Z" id="Shape" fill-rule="nonzero"></path>
            <path d="M76.971831,5.07042254 L76.9577465,5.05633803 L76.971831,5.04225352 C77.5211268,4.6056338 77.8309859,3.92957746 77.8309859,3.12676056 C77.8309859,1.53521127 76.4647887,0.971830986 75.1830986,0.971830986 C74.5352113,0.971830986 73.5492958,0.971830986 72.9859155,0.985915493 L72.9859155,7.61971831 L74.6338028,7.61971831 L74.6338028,5.5915493 L75.1408451,5.5915493 C75.2394366,5.5915493 75.3380282,5.5915493 75.4225352,5.57746479 L75.4366197,5.57746479 L75.4507042,5.5915493 C75.7323944,6.02816901 76.0704225,6.73239437 76.1830986,7.61971831 L78,7.61971831 C77.8450704,6.6056338 77.2816901,5.5915493 76.971831,5.07042254 Z M75.1267606,4.35211268 C74.915493,4.35211268 74.7887324,4.35211268 74.6619718,4.33802817 L74.6338028,4.33802817 L74.6338028,2.22535211 L74.6619718,2.22535211 C74.8028169,2.21126761 75,2.21126761 75.1549296,2.21126761 C75.915493,2.21126761 76.0704225,2.64788732 76.0704225,3.36619718 C76.0704225,4.04225352 75.7887324,4.35211268 75.1267606,4.35211268 Z" id="Shape" fill-rule="nonzero"></path>
            <text id="Accessibility" font-family="Merriweather-Regular, Merriweather" font-size="22" font-weight="normal">
                <tspan x="0" y="35">Accessibility</tspan>
            </text>
        </g>
    </g>
</svg>