<?xml version="1.0" encoding="utf-8"?>
<!-- Generator: Adobe Illustrator 17.1.0, SVG Export Plug-In . SVG Version: 6.00 Build 0)  -->
<!DOCTYPE svg PUBLIC "-//W3C//DTD SVG 1.1//EN" "http://www.w3.org/Graphics/SVG/1.1/DTD/svg11.dtd">
<svg version="1.1" id="Layer_1" xmlns="http://www.w3.org/2000/svg" xmlns:xlink="http://www.w3.org/1999/xlink" x="0px" y="0px"
     viewBox="0 0 160 42.5" enable-background="new 0 0 160 42.5" xml:space="preserve">
<g>
    <text id="Accessibility" font-family="Merriweather-Bold, Merriweather" font-size="22" font-weight="bold">
        <tspan x="0" y="38">Accessibility</tspan>
    </text>
    <g>
        <path fill="#222222" d="M4.4,11.4c0.9,0.5,1.8,0.8,2.7,0.8c1.8,0,2.8-1,2.8-2.6C9.9,8,8.8,7.4,7.8,7C7.1,6.7,6.6,6.4,6.6,5.9
            c0-0.4,0.3-0.8,0.9-0.8c0.4,0,1,0.1,1.7,0.5l0.7-1.4C9,3.7,8.2,3.5,7.3,3.5c-1.7,0-2.7,0.9-2.7,2.4c0,1.5,1.2,2.1,2.1,2.6
            C7.4,8.9,8,9.1,8,9.7c0,0.5-0.4,0.8-1.1,0.8c-0.5,0-1.1-0.2-1.9-0.6L4.4,11.4z"/>
        <path fill="#222222" d="M13.5,4.4c-0.7,0-1.9,0-2.5,0V12h1.9V9.7h0.6c0.9,0,2.8-0.3,2.8-2.8C16.3,5.3,15.3,4.4,13.5,4.4z
             M13.4,8.3c-0.2,0-0.4,0-0.5,0l0,0V5.9l0,0c0.2,0,0.4,0,0.6,0c0.9,0,1,0.5,1,1.3C14.5,7.9,14.2,8.3,13.4,8.3z"/>
        <path fill="#222222" d="M21.8,9.1L21.8,9.1L21.8,9.1c0.6-0.5,1-1.3,1-2.2c0-1.8-1.6-2.5-3-2.5c-0.7,0-1.9,0-2.5,0V12h1.9V9.7h0.6
            c0.1,0,0.2,0,0.3,0l0,0l0,0c0.3,0.5,0.7,1.3,0.8,2.3c0.4,0,2.1,0,2.1,0C22.8,10.9,22.1,9.7,21.8,9.1z M19.7,8.3
            c-0.2,0-0.4,0-0.5,0l0,0V5.9l0,0c0.2,0,0.4,0,0.6,0c0.9,0,1,0.5,1,1.3C20.8,7.9,20.4,8.3,19.7,8.3z"/>
        <polygon fill="#222222" points="24.1,4.5 24.1,4.9 24.1,5.5 24.1,6.2 24.1,7.1 24.1,8.4 24.1,9.5 24.1,10.6 24.1,12 26,12 
            26,11.3 26,9.8 26,8.6 26,7.4 26,6.4 26,5.8 26,5 26,4.5      "/>
        <polygon fill="#222222" points="31.6,12 33.6,12 33.6,4.5 32,4.5 32,9.4 29.7,4.5 27.7,4.5 27.7,12 29.3,12 29.3,7.2       "/>
        <polygon fill="#222222" points="60.5,12 62.7,12 62.7,3.5 61,3.5 61,9.4 58.2,3.5 56,3.5 56,12 57.7,12 57.7,6.2       "/>
        <g>
            <path fill="#222222" d="M38.2,4.3c-1.1,0-2,0.3-2.5,1c-0.5,0.7-0.8,1.6-0.8,3c0,2.9,0.9,4,3.1,4c0.7,0,1.8-0.2,2.6-0.6V7.9h-2.5
                v1.3h0.8v1.5l0,0c-0.2,0.1-0.6,0.1-0.8,0.1c-1,0-1.4-0.7-1.4-2.6c0-1.6,0.6-2.5,1.7-2.5c0.4,0,1,0.2,1.6,0.5L40.5,5
                C39.8,4.5,39,4.3,38.2,4.3"/>
        </g>
        <polygon fill="#222222" points="72.1,12 74.1,12 74.1,6 75.5,6 75.5,4.5 70.4,4.5 70.4,6 72.1,6       "/>
        <g>
            <path fill="#222222" d="M76.7,4.5v5.1c0,1.8,0.9,2.6,2.8,2.6c2,0,2.9-0.9,2.9-2.9V4.5h-1.9v5c0,0.8,0,1.2-0.9,1.2
                c-0.8,0-1-0.4-1-1.3v-5H76.7z"/>
            <path fill="#222222" d="M41.9,4.5v6.2c0,0,0,0.6,0.4,1c0.2,0.3,0.6,0.4,1,0.4c1.4,0,2.9,0,3.1-0.1v-1.5h-2.7V8.9h2.4V7.4h-2.4
                V5.9h2.7V4.5H41.9z"/>
            <path fill="#222222" d="M90.6,4.5v6.2c0,0,0,0.6,0.4,1c0.2,0.3,0.6,0.4,1,0.4c1.4,0,2.9,0,3.1-0.1v-1.5h-2.7V8.9h2.4V7.4h-2.4
                V5.9h2.7V4.5H90.6z"/>
        </g>
        <path fill="#222222" d="M68.6,4.5h-2.9L63.8,12h1.9l0.3-1.2h2.1l0.3,1.2h2L68.6,4.5z M66.2,9.4L67,6.1h0.1l0.8,3.3H66.2z"/>
        <path fill="#222222" d="M52.3,9.1L52.3,9.1L52.3,9.1c0.6-0.5,1-1.3,1-2.2c0-1.8-1.6-2.5-3-2.5c-0.7,0-1.9,0-2.5,0V12h1.9V9.7h0.6
            c0.1,0,0.2,0,0.3,0l0,0l0,0c0.3,0.5,0.7,1.3,0.8,2.3c0.4,0,2.1,0,2.1,0C53.3,10.9,52.7,9.7,52.3,9.1z M50.2,8.3
            c-0.2,0-0.4,0-0.5,0l0,0V5.9l0,0c0.2,0,0.4,0,0.6,0c0.9,0,1,0.5,1,1.3C51.3,7.9,51,8.3,50.2,8.3z"/>
        <path fill="#222222" d="M88.3,9.1L88.3,9.1L88.3,9.1c0.6-0.5,1-1.3,1-2.2c0-1.8-1.6-2.5-3-2.5c-0.7,0-1.9,0-2.5,0V12h1.9V9.7h0.6
            c0.1,0,0.2,0,0.3,0l0,0l0,0c0.3,0.5,0.7,1.3,0.8,2.3c0.4,0,2.1,0,2.1,0C89.3,10.9,88.7,9.7,88.3,9.1z M86.3,8.3
            c-0.2,0-0.4,0-0.5,0l0,0V5.9l0,0c0.2,0,0.4,0,0.6,0c0.9,0,1,0.5,1,1.3C87.3,7.9,87,8.3,86.3,8.3z"/>
    </g>
</g>
</svg>
